<?xml version='1.0' encoding='UTF-8'?>
<svg xmlns="http://www.w3.org/2000/svg" xmlns:xlink="http://www.w3.org/1999/xlink" width="512" zoomAndPan="magnify" viewBox="0 0 375 374.999991" height="512" preserveAspectRatio="xMidYMid meet" version="1.2" fill="#233746">
  <defs>
    <clipPath id="badcb0e3e9">
      <path d="M 8.460938 50 L 366.210938 50 L 366.210938 326.421875 L 8.460938 326.421875 Z M 8.460938 50 " fill="#233746"/>
    </clipPath>
  </defs>
  <g id="86dbd48864">
    <g clip-rule="nonzero" clip-path="url(#badcb0e3e9)">
      <path style=" stroke:none;fill-rule:nonzero;fill:#233746;fill-opacity:1;" d="M 437.1875 517.632812 C 417.488281 510.832031 417.5625 495.585938 437.335938 485.636719 C 440.484375 484.054688 440.484375 484.054688 435.808594 481.992188 C 427.542969 478.34375 426.1875 468.542969 433.058594 462.089844 C 436.507812 458.847656 436.59375 457.421875 433.507812 454.628906 C 413.851562 436.835938 438.894531 407.625 468.351562 413.988281 C 476.6875 415.789062 477.855469 415.796875 484.429688 414.113281 C 493.886719 411.691406 493.597656 411.589844 493.597656 417.390625 C 493.597656 422.484375 493.597656 422.484375 488.695312 422.484375 C 482.515625 422.484375 482.113281 422.929688 484.078125 427.628906 C 492.054688 446.722656 475.769531 464.640625 452.421875 462.460938 C 444.171875 461.6875 441.546875 462.84375 441.546875 467.238281 C 441.546875 472.691406 445.585938 474.101562 462.089844 474.394531 C 485.292969 474.804688 492.214844 479.742188 491.105469 495.082031 C 489.753906 513.722656 460.863281 525.808594 437.1875 517.632812 Z M 470.507812 509.550781 C 481.632812 502.671875 480.046875 491.359375 467.429688 487.609375 C 452.015625 483.035156 440.414062 487.898438 440.414062 498.941406 C 440.414062 510.960938 458.125 517.203125 470.507812 509.550781 Z M 464.875 454.046875 C 472.660156 446.730469 471.613281 423.261719 463.363281 420.125 C 451.789062 415.722656 443.808594 423.152344 443.808594 438.324219 C 443.808594 454.503906 455.277344 463.0625 464.875 454.046875 Z M 228.679688 483.871094 C 227.195312 480.914062 225.871094 478.304688 225.742188 478.074219 C 225.613281 477.839844 223.832031 479.0625 221.78125 480.789062 C 198.738281 500.21875 169.984375 472.039062 179.496094 439.347656 C 185.605469 418.359375 204.703125 407.722656 222.867188 415.195312 C 228.945312 417.695312 228.617188 391.75 222.535156 388.847656 C 215.605469 385.542969 217.464844 383.121094 230.300781 378.726562 C 244.816406 373.757812 243.515625 369.285156 243.515625 424.257812 C 243.515625 477.972656 242.980469 474.476562 251.660156 477.292969 C 260.082031 480.023438 254.398438 484.445312 239.824219 486.488281 C 236.863281 486.902344 234.160156 487.695312 233.816406 488.246094 C 232.59375 490.226562 231.339844 489.15625 228.679688 483.871094 Z M 217.902344 474.105469 C 234.996094 466.964844 229.433594 420.21875 211.492188 420.21875 C 189.703125 420.21875 187.472656 469.339844 209.027344 474.386719 C 211.503906 474.964844 213.675781 475.492188 213.847656 475.554688 C 214.023438 475.617188 215.847656 474.964844 217.902344 474.105469 Z M -52.621094 484.765625 C -70.226562 474.03125 -58.460938 453.9375 -29.761719 445.714844 C -19.621094 442.808594 -18.082031 439.5625 -21.324219 427.890625 C -24.980469 414.726562 -42.773438 419.058594 -42.773438 433.113281 C -42.773438 439.242188 -50.273438 441.746094 -53.566406 436.722656 C -60.390625 426.308594 -42.078125 410.914062 -24.945312 412.660156 C -8.035156 414.386719 -5.054688 419.886719 -4.300781 450.773438 C -3.671875 476.601562 -3.492188 477.324219 2.050781 476.285156 C 5.421875 475.652344 5.882812 475.851562 5.882812 477.953125 C 5.882812 488.792969 -16.265625 490.628906 -19.617188 480.066406 C -20.355469 477.746094 -20.367188 477.746094 -22.796875 479.96875 C -30.472656 486.992188 -45.109375 489.347656 -52.621094 484.765625 Z M -26.84375 474.867188 C -19.675781 470.632812 -16.714844 450.761719 -23.253906 450.785156 C -27.503906 450.796875 -37.066406 455.460938 -40.511719 459.199219 C -49.523438 468.980469 -38.421875 481.707031 -26.84375 474.867188 Z M 75.019531 485.550781 C 67.980469 481.933594 67.585938 480.203125 67.214844 451.324219 C 66.875 424.875 66.875 424.875 62.6875 424.527344 C 56.355469 424 56.925781 420.242188 64.160156 414.804688 C 68.488281 411.550781 70.75 408.640625 73.777344 402.410156 C 79.902344 389.820312 82.679688 390.542969 82.441406 404.660156 L 82.265625 415.128906 L 92.734375 415.453125 C 103.199219 415.777344 103.199219 415.777344 103.199219 420.21875 C 103.199219 424.660156 103.199219 424.660156 92.734375 424.984375 L 82.265625 425.3125 L 82.425781 447.671875 C 82.644531 477.964844 85.613281 481.703125 102.210938 472.566406 C 105.03125 471.015625 103.882812 476.597656 100.691406 479.953125 C 94.359375 486.609375 82.226562 489.257812 75.019531 485.550781 Z M 127.535156 485.167969 C 101.082031 475.488281 100.140625 429.035156 126.136719 416.34375 C 147.726562 405.804688 168.097656 416.445312 168.21875 438.324219 L 168.265625 446.8125 L 145.636719 447.378906 C 123.003906 447.941406 123.003906 447.941406 123.332031 451.902344 C 124.910156 470.929688 145.882812 481.707031 161.363281 471.453125 C 169.753906 465.890625 171.78125 469.003906 164.796875 476.730469 C 156.253906 486.191406 140.234375 489.816406 127.535156 485.167969 Z M 152.128906 433.296875 C 151.125 414.339844 125.996094 415.324219 123.84375 434.40625 L 123.265625 439.527344 L 137.84375 439.207031 L 152.425781 438.890625 Z M 368.304688 485.175781 C 339.660156 474.648438 339.386719 428.914062 367.890625 415.921875 C 404.226562 399.355469 434.558594 445.222656 408.078125 476.691406 C 400.660156 485.507812 380.757812 489.753906 368.304688 485.175781 Z M 391.792969 477.648438 C 404.84375 468.832031 405.523438 435.730469 392.894531 424.320312 C 375.476562 408.582031 356.859375 435.597656 365.496094 464.082031 C 369.398438 476.964844 382.675781 483.8125 391.792969 477.648438 Z M 560.308594 485.914062 C 536.132812 478.574219 529.796875 440.03125 549.867188 422.410156 C 568.132812 406.375 601.605469 412.242188 595.285156 430.371094 C 593.316406 436.015625 590.324219 436.816406 586.652344 432.6875 C 577.3125 422.1875 574.933594 420.21875 571.59375 420.21875 C 548.863281 420.21875 545.722656 463.378906 567.71875 473.527344 C 575.824219 477.269531 583.164062 476.148438 590.949219 469.984375 C 596.984375 465.203125 599.246094 467.734375 594.859375 474.363281 C 587.929688 484.832031 573.089844 489.792969 560.308594 485.914062 Z M -219.304688 482.578125 C -219.304688 479.292969 -217.667969 477.929688 -213.726562 477.929688 C -208.40625 477.929688 -208.089844 475.996094 -207.5 439.820312 C -206.777344 395.160156 -207.359375 391.828125 -216.191406 390.019531 C -218.71875 389.503906 -219.304688 388.769531 -219.304688 386.128906 C -219.304688 382.875 -219.304688 382.875 -198.367188 382.875 C -174.355469 382.875 -170.523438 384.867188 -182.808594 390.960938 C -189.378906 394.21875 -189.722656 395.585938 -189.816406 418.804688 C -189.894531 438.445312 -191.09375 438.5 -172.921875 418.054688 C -151.867188 394.371094 -151.21875 393.21875 -157.058594 389.898438 C -166.117188 384.742188 -162.210938 382.875 -142.355469 382.875 C -120.816406 382.875 -117.335938 385.257812 -130.757812 390.808594 C -136.050781 392.996094 -140.304688 396.484375 -153.609375 409.535156 L -169.953125 425.574219 L -163.796875 433.929688 C -139.066406 467.503906 -132.484375 475.234375 -126.519531 477.714844 C -116.402344 481.917969 -118.503906 485.191406 -131.605469 485.617188 C -147.703125 486.144531 -145.117188 488.054688 -165.054688 460.957031 C -183.691406 435.625 -181.59375 437.523438 -186.121094 441.914062 C -193.9375 449.488281 -191.230469 475.855469 -182.410156 478.078125 C -167.488281 481.835938 -175.734375 485.851562 -198.367188 485.851562 C -219.304688 485.851562 -219.304688 485.851562 -219.304688 482.578125 Z M -115.195312 482.476562 C -115.195312 479.816406 -114.59375 478.953125 -112.339844 478.386719 C -102.171875 475.835938 -103.222656 425.878906 -113.449219 425.878906 C -120.027344 425.878906 -114.757812 420.636719 -104.632812 417.109375 C -89.6875 411.898438 -90.308594 411.65625 -90.277344 422.765625 L -90.253906 432.101562 L -86.832031 426.230469 C -79.09375 412.960938 -68.273438 409.132812 -63.667969 418.035156 C -58.566406 427.902344 -65.191406 436.605469 -73.453125 430.882812 C -83.828125 423.691406 -90.679688 434.8125 -90.125 457.9375 C -89.695312 475.910156 -89.167969 477.402344 -82.832031 478.59375 C -69.191406 481.152344 -78.421875 485.851562 -97.089844 485.851562 C -115.195312 485.851562 -115.195312 485.851562 -115.195312 482.476562 Z M 10.96875 484.710938 C 9.640625 482.5625 11.566406 479.460938 15.230469 477.847656 C 21.0625 475.28125 21.605469 424.753906 15.804688 424.726562 C 10.410156 424.703125 9.128906 423.507812 9.972656 419.296875 C 10.632812 415.988281 11.054688 415.691406 15.078125 415.691406 C 19.460938 415.691406 19.460938 415.691406 19.46875 408.621094 C 19.488281 385.328125 48.910156 365.742188 59.3125 382.097656 C 64.570312 390.367188 55.820312 398.921875 50.433594 390.777344 C 42.222656 378.367188 35.304688 385.167969 35.304688 405.648438 L 35.304688 415.691406 L 44.355469 415.691406 C 53.410156 415.691406 53.410156 415.691406 53.410156 419.523438 C 53.410156 424.011719 51.863281 424.707031 41.8125 424.730469 L 35.304688 424.746094 L 35.304688 448.582031 C 35.304688 475.050781 35.546875 476.101562 42.113281 478.070312 C 45.996094 479.234375 46.621094 479.867188 46.621094 482.636719 C 46.621094 485.984375 12.964844 487.941406 10.96875 484.710938 Z M 263.886719 482.476562 C 263.886719 479.816406 264.488281 478.953125 266.742188 478.386719 C 272.839844 476.859375 272.9375 476.144531 272.9375 434.289062 C 272.9375 391.410156 273.3125 393.519531 265.226562 390.703125 C 252.675781 386.324219 260.5625 382.875 283.125 382.875 C 305.871094 382.875 314.613281 386.890625 300.277344 390.75 C 291.484375 393.117188 291.652344 392.355469 291.28125 431.597656 C 290.847656 477.746094 291.230469 478.792969 308.199219 477.515625 C 320.007812 476.625 326.648438 471.960938 332.335938 460.558594 C 337.152344 450.894531 340.15625 471.933594 335.746094 484.4375 C 334.449219 488.113281 263.886719 486.1875 263.886719 482.476562 Z M 499.257812 482.5625 C 499.257812 480.074219 499.910156 479.015625 501.804688 478.4375 C 508.140625 476.507812 508.308594 475.859375 508.308594 453.351562 C 508.308594 430.453125 507.925781 428.808594 501.96875 426.320312 C 495.855469 423.765625 498.359375 421.367188 511.683594 417 C 525.835938 412.359375 524.308594 409.046875 524.222656 444.148438 C 524.144531 475.984375 524.238281 476.542969 529.96875 478.40625 C 541.09375 482.03125 535.039062 485.261719 516.484375 485.597656 C 499.257812 485.910156 499.257812 485.910156 499.257812 482.5625 Z M 508.398438 398.050781 C 504.207031 394.527344 503.722656 389.222656 507.191406 384.8125 C 513.746094 376.480469 528.523438 383.375 525.964844 393.574219 C 524.082031 401.078125 514.804688 403.441406 508.398438 398.050781 Z M 9.515625 314.132812 C 9.84375 304.230469 9.84375 304.230469 17.070312 302.800781 C 31.753906 299.898438 41.304688 293.113281 47.257812 281.367188 C 52.003906 272.003906 52.59375 104.996094 47.917969 94.660156 C 42.8125 83.371094 28.742188 73.109375 15.261719 70.847656 C 9.84375 69.9375 9.84375 69.9375 9.6875 60.0625 L 9.53125 50.1875 L 145.070312 50.1875 L 145.070312 58.675781 C 145.070312 63.34375 145.113281 67.542969 145.167969 68.011719 C 145.222656 68.476562 141.507812 70.140625 136.914062 71.703125 C 110.71875 80.621094 106.4375 89.675781 106.859375 135.226562 L 107.160156 167.515625 L 113.839844 160.058594 C 117.511719 155.953125 124.617188 148.269531 129.632812 142.980469 C 134.644531 137.6875 143.351562 128.269531 148.976562 122.046875 C 154.601562 115.820312 165.699219 103.726562 173.636719 95.167969 C 191.578125 75.828125 191.769531 74.113281 176.472656 69.824219 C 169.964844 67.996094 169.964844 67.996094 169.964844 59.09375 L 169.964844 50.1875 L 217.363281 50.1875 C 270.886719 50.1875 265.90625 48.878906 265.675781 62.890625 C 265.582031 68.703125 265.582031 68.703125 258.203125 70.503906 C 244.386719 73.875 239.523438 77.144531 222.421875 94.59375 C 188.625 129.078125 165.917969 152.703125 136.835938 183.632812 L 106.59375 215.796875 L 106.59375 245.972656 C 106.59375 288.042969 111.691406 297.222656 138.066406 302.671875 C 145.070312 304.117188 145.070312 304.117188 145.070312 314.074219 L 145.070312 324.035156 L 9.191406 324.035156 Z M 169.964844 314.414062 L 169.964844 304.796875 L 177.035156 304.789062 C 201.109375 304.765625 219.753906 297.617188 219.753906 288.40625 C 219.753906 284.5625 216.308594 280.257812 155.585938 208.226562 C 150.425781 202.101562 146.199219 196.496094 146.199219 195.769531 C 146.199219 194.292969 190.007812 150.140625 190.664062 150.953125 C 199.433594 161.816406 221.410156 187.894531 268.257812 243.03125 C 298.171875 278.238281 301.421875 280.941406 315.09375 281.921875 C 332.402344 283.164062 342.964844 272.480469 346.226562 250.429688 C 347.265625 243.402344 348.273438 243.109375 359.222656 246.65625 L 364.597656 248.398438 L 364.597656 324.035156 L 169.964844 324.035156 Z M 169.964844 314.414062 " fill="#233746"/>
    </g>
  </g>
</svg>
